<svg width="123" height="42" viewBox="0 0 123 42" fill="none" xmlns="http://www.w3.org/2000/svg">
<path d="M3.33559 11.3104H6.50877L11.1811 24.6653L15.8534 11.3104H19.0266L12.4554 29.5H9.90682L3.33559 11.3104ZM1.62407 11.3104H4.78476L5.35943 24.328V29.5H1.62407V11.3104ZM17.5774 11.3104H20.7506V29.5H17.0027V24.328L17.5774 11.3104ZM33.5058 24.7402C33.5058 24.4154 33.4558 24.1239 33.3559 23.8657C33.2643 23.5992 33.0894 23.3577 32.8312 23.1411C32.573 22.9163 32.2107 22.6956 31.7443 22.479C31.2779 22.2625 30.6741 22.0376 29.9328 21.8044C29.1083 21.5379 28.3254 21.2381 27.5842 20.9049C26.8513 20.5718 26.2016 20.1845 25.6353 19.7431C25.0773 19.2934 24.6359 18.7728 24.3111 18.1815C23.9946 17.5902 23.8363 16.9031 23.8363 16.1202C23.8363 15.3623 24.0029 14.6752 24.336 14.0589C24.6692 13.4342 25.1356 12.9012 25.7352 12.4598C26.3349 12.01 27.0428 11.6644 27.859 11.4229C28.6835 11.1813 29.5872 11.0606 30.57 11.0606C31.9109 11.0606 33.081 11.3021 34.0805 11.7852C35.0799 12.2682 35.8544 12.9303 36.4041 13.7715C36.9621 14.6127 37.2411 15.5747 37.2411 16.6574H33.5183C33.5183 16.1243 33.4058 15.6579 33.181 15.2582C32.9644 14.8501 32.6313 14.5294 32.1815 14.2962C31.7401 14.063 31.1821 13.9464 30.5075 13.9464C29.8579 13.9464 29.3165 14.0464 28.8834 14.2462C28.4503 14.4378 28.1255 14.7002 27.909 15.0333C27.6925 15.3581 27.5842 15.7246 27.5842 16.1327C27.5842 16.4408 27.6591 16.7198 27.8091 16.9697C27.9673 17.2195 28.2005 17.4527 28.5086 17.6693C28.8168 17.8858 29.1958 18.0899 29.6455 18.2814C30.0952 18.473 30.6158 18.6604 31.2071 18.8436C32.1982 19.1434 33.0685 19.4807 33.8181 19.8555C34.576 20.2303 35.209 20.6509 35.717 21.1173C36.2251 21.5837 36.6082 22.1126 36.8664 22.7039C37.1245 23.2952 37.2536 23.9657 37.2536 24.7152C37.2536 25.5065 37.0996 26.2144 36.7914 26.839C36.4832 27.4637 36.0377 27.9925 35.4547 28.4256C34.8717 28.8587 34.1762 29.1877 33.3684 29.4126C32.5605 29.6374 31.6568 29.7499 30.6574 29.7499C29.7579 29.7499 28.8709 29.6333 27.9964 29.4001C27.1219 29.1585 26.3266 28.7962 25.6103 28.3132C24.9024 27.8301 24.336 27.2138 23.9113 26.4642C23.4865 25.7147 23.2742 24.8277 23.2742 23.8033H27.0345C27.0345 24.3696 27.1219 24.8485 27.2968 25.2399C27.4717 25.6314 27.7174 25.9479 28.0339 26.1894C28.3587 26.4309 28.7418 26.6058 29.1833 26.7141C29.633 26.8224 30.1244 26.8765 30.6574 26.8765C31.307 26.8765 31.8401 26.7849 32.2565 26.6017C32.6813 26.4184 32.9936 26.1644 33.1935 25.8396C33.4017 25.5148 33.5058 25.1483 33.5058 24.7402ZM47.885 11.3104H51.0582L55.7305 24.6653L60.4029 11.3104H63.576L57.0048 29.5H54.4563L47.885 11.3104ZM46.1735 11.3104H49.3342L49.9089 24.328V29.5H46.1735V11.3104ZM62.1269 11.3104H65.3V29.5H61.5522V24.328L62.1269 11.3104ZM67.7861 22.8788V22.6164C67.7861 21.6253 67.9277 20.7134 68.2109 19.8805C68.494 19.0393 68.9063 18.3106 69.4477 17.6943C69.989 17.078 70.6553 16.5991 71.4465 16.2576C72.2377 15.9078 73.1455 15.7329 74.17 15.7329C75.1944 15.7329 76.1063 15.9078 76.9059 16.2576C77.7054 16.5991 78.3759 17.078 78.9172 17.6943C79.4669 18.3106 79.8833 19.0393 80.1665 19.8805C80.4497 20.7134 80.5913 21.6253 80.5913 22.6164V22.8788C80.5913 23.8616 80.4497 24.7735 80.1665 25.6147C79.8833 26.4476 79.4669 27.1763 78.9172 27.801C78.3759 28.4173 77.7096 28.8962 76.9184 29.2377C76.1272 29.5791 75.2194 29.7499 74.1949 29.7499C73.1705 29.7499 72.2586 29.5791 71.459 29.2377C70.6678 28.8962 69.9974 28.4173 69.4477 27.801C68.9063 27.1763 68.494 26.4476 68.2109 25.6147C67.9277 24.7735 67.7861 23.8616 67.7861 22.8788ZM71.3841 22.6164V22.8788C71.3841 23.4451 71.434 23.974 71.534 24.4654C71.6339 24.9568 71.7922 25.3899 72.0087 25.7646C72.2336 26.1311 72.5251 26.4184 72.8832 26.6266C73.2413 26.8349 73.6786 26.939 74.1949 26.939C74.6947 26.939 75.1236 26.8349 75.4817 26.6266C75.8398 26.4184 76.1272 26.1311 76.3437 25.7646C76.5603 25.3899 76.7185 24.9568 76.8184 24.4654C76.9267 23.974 76.9808 23.4451 76.9808 22.8788V22.6164C76.9808 22.0668 76.9267 21.5504 76.8184 21.0673C76.7185 20.576 76.5561 20.1429 76.3312 19.7681C76.1147 19.385 75.8273 19.0851 75.4692 18.8686C75.1111 18.6521 74.678 18.5438 74.17 18.5438C73.6619 18.5438 73.2288 18.6521 72.8707 18.8686C72.5209 19.0851 72.2336 19.385 72.0087 19.7681C71.7922 20.1429 71.6339 20.576 71.534 21.0673C71.434 21.5504 71.3841 22.0668 71.3841 22.6164ZM86.3255 18.8686V29.5H82.7276V15.9828H86.1006L86.3255 18.8686ZM85.8008 22.2666H84.8263C84.8263 21.2672 84.9554 20.3677 85.2136 19.5682C85.4718 18.7603 85.8341 18.0732 86.3005 17.5069C86.7669 16.9322 87.3208 16.495 87.9621 16.1951C88.6117 15.887 89.3363 15.7329 90.1358 15.7329C90.7688 15.7329 91.3476 15.8245 91.8723 16.0077C92.397 16.191 92.8467 16.4825 93.2215 16.8822C93.6046 17.282 93.8961 17.8109 94.096 18.4688C94.3042 19.1268 94.4084 19.9305 94.4084 20.8799V29.5H90.7854V20.8675C90.7854 20.2678 90.7021 19.8014 90.5356 19.4683C90.369 19.1351 90.1233 18.9019 89.7985 18.7687C89.482 18.6271 89.0906 18.5563 88.6242 18.5563C88.1411 18.5563 87.7205 18.6521 87.3624 18.8436C87.0126 19.0352 86.7211 19.3017 86.4879 19.6432C86.263 19.9763 86.0923 20.3677 85.9757 20.8175C85.8591 21.2672 85.8008 21.7503 85.8008 22.2666ZM103.366 29.7499C102.316 29.7499 101.375 29.5833 100.542 29.2501C99.7095 28.9087 99.0016 28.4381 98.4186 27.8385C97.8439 27.2388 97.4025 26.5434 97.0943 25.7521C96.7862 24.9526 96.6321 24.1031 96.6321 23.2036V22.7039C96.6321 21.6795 96.7778 20.7425 97.0693 19.893C97.3608 19.0435 97.7773 18.3064 98.3186 17.6818C98.8683 17.0571 99.5346 16.5782 100.317 16.2451C101.1 15.9036 101.983 15.7329 102.966 15.7329C103.924 15.7329 104.773 15.8911 105.514 16.2076C106.256 16.5241 106.876 16.9739 107.376 17.5569C107.884 18.1398 108.267 18.8394 108.525 19.6556C108.783 20.4635 108.913 21.363 108.913 22.3541V23.8532H98.1687V21.4546H105.377V21.1798C105.377 20.6801 105.285 20.2345 105.102 19.843C104.927 19.4433 104.661 19.1268 104.303 18.8936C103.945 18.6604 103.486 18.5438 102.928 18.5438C102.454 18.5438 102.046 18.6479 101.704 18.8561C101.363 19.0643 101.084 19.3558 100.867 19.7306C100.659 20.1054 100.501 20.5468 100.392 21.0548C100.292 21.5546 100.243 22.1042 100.243 22.7039V23.2036C100.243 23.745 100.317 24.2447 100.467 24.7028C100.626 25.1608 100.846 25.5564 101.129 25.8896C101.421 26.2227 101.771 26.4809 102.179 26.6641C102.595 26.8474 103.066 26.939 103.591 26.939C104.24 26.939 104.844 26.814 105.402 26.5642C105.968 26.306 106.456 25.9187 106.864 25.4024L108.613 27.3013C108.33 27.7094 107.942 28.1008 107.451 28.4756C106.968 28.8504 106.385 29.1585 105.702 29.4001C105.019 29.6333 104.24 29.7499 103.366 29.7499ZM114.797 27.9759L118.382 15.9828H122.242L116.808 31.5363C116.691 31.8778 116.533 32.2443 116.333 32.6357C116.142 33.0271 115.879 33.3978 115.546 33.7476C115.221 34.1057 114.809 34.3972 114.309 34.6221C113.818 34.8469 113.214 34.9594 112.498 34.9594C112.157 34.9594 111.877 34.9385 111.661 34.8969C111.444 34.8553 111.186 34.797 110.886 34.722V32.086C110.978 32.086 111.074 32.086 111.174 32.086C111.274 32.0943 111.369 32.0985 111.461 32.0985C111.936 32.0985 112.323 32.0444 112.623 31.9361C112.923 31.8278 113.164 31.6613 113.347 31.4364C113.531 31.2198 113.676 30.9367 113.785 30.5869L114.797 27.9759ZM113.298 15.9828L116.233 25.7771L116.746 29.5874L114.297 29.8498L109.437 15.9828H113.298Z" fill="#E1E1E6"/>
</svg>
